<svg xmlns="http://www.w3.org/2000/svg" xmlns:xlink="http://www.w3.org/1999/xlink" width="300" zoomAndPan="magnify" viewBox="0 0 224.87999 225" height="300" preserveAspectRatio="xMidYMid meet" version="1.0"><defs><g/><clipPath id="7e09ed5fa4"><path d="M 0 0.0585938 L 224.761719 0.0585938 L 224.761719 4 L 0 4 Z M 0 0.0585938 " clip-rule="nonzero"/></clipPath><clipPath id="49dd8e5f8d"><path d="M 0 0.0585938 L 3 0.0585938 L 3 224.9375 L 0 224.9375 Z M 0 0.0585938 " clip-rule="nonzero"/></clipPath><clipPath id="7d270bb467"><path d="M 0 221 L 224.761719 221 L 224.761719 224.9375 L 0 224.9375 Z M 0 221 " clip-rule="nonzero"/></clipPath><clipPath id="47a8040443"><path d="M 221 0.0585938 L 224.761719 0.0585938 L 224.761719 31 L 221 31 Z M 221 0.0585938 " clip-rule="nonzero"/></clipPath><clipPath id="39a2a17245"><path d="M 221 194 L 224.761719 194 L 224.761719 224.9375 L 221 224.9375 Z M 221 194 " clip-rule="nonzero"/></clipPath></defs><g fill="#5ce1e6" fill-opacity="1"><g transform="translate(44.639988, 113.275021)"><g><path d="M 5.574219 -0.171875 C 6.667969 0.167969 8.132812 0.242188 10.152344 -0.0820312 L 11.164062 -0.246094 C 12.679688 -0.492188 14.082031 -0.820312 15.445312 -1.351562 C 19.632812 -3.066406 23.433594 -5.859375 26.769531 -9.613281 C 30.105469 -13.367188 32.835938 -17.023438 35.058594 -20.601562 C 36.214844 -22.445312 37.265625 -24.277344 38.152344 -25.871094 C 38.933594 -27.449219 39.664062 -28.710938 40.140625 -29.617188 C 40.804688 -31.28125 41.113281 -32.574219 40.96875 -33.484375 C 40.871094 -34.089844 40.46875 -34.648438 40 -34.988281 C 38.65625 -35.601562 37.410156 -35.609375 36.496094 -34.835938 C 35.613281 -33.867188 34.105469 -31.652344 32.101562 -28.007812 C 30.007812 -24.246094 27.699219 -20.554688 24.972656 -16.894531 C 23.445312 -14.78125 21.871094 -12.972656 20.277344 -11.261719 C 18.585938 -9.535156 16.828125 -8.214844 15.105469 -7.316406 C 12.050781 -5.679688 9.554688 -5.070312 7.519531 -5.46875 C 5.398438 -5.746094 3.839844 -7.050781 2.640625 -9.347656 C 1.605469 -11.257812 0.898438 -14.359375 0.53125 -18.550781 C 0.164062 -22.746094 0.15625 -27.308594 0.601562 -32.257812 C 0.996094 -36.886719 1.726562 -41.984375 2.800781 -47.550781 C 3.804688 -52.902344 5.457031 -60.015625 7.65625 -68.878906 C 9.03125 -74.496094 9.722656 -77.925781 9.8125 -79.289062 C 9.804688 -80.636719 9.253906 -81.480469 8.160156 -81.824219 C 7.839844 -81.875 7.519531 -81.929688 7.316406 -81.894531 C 6.609375 -81.78125 6.070312 -81.277344 5.578125 -80.472656 C 4.949219 -79.230469 4.058594 -76.390625 2.890625 -72.050781 C 0.726562 -63.609375 -0.839844 -56.613281 -1.929688 -51.144531 C -3.101562 -45.5625 -3.921875 -40.347656 -4.453125 -35.28125 C -5.371094 -26.832031 -5.304688 -19.996094 -4.453125 -14.738281 C -4.226562 -13.324219 -4.03125 -12.109375 -3.632812 -10.929688 C -2.078125 -5.164062 1 -1.511719 5.574219 -0.171875 Z M 5.574219 -0.171875 "/></g></g></g><g fill="#5ce1e6" fill-opacity="1"><g transform="translate(85.992447, 106.598059)"><g><path d="M -2.378906 -8.953125 C -1.035156 -8.339844 0.480469 -8.585938 2.203125 -9.484375 C 3.824219 -10.371094 5.632812 -12.011719 7.632812 -14.40625 C 8.414062 -15.363281 9.5 -16.992188 10.890625 -19.292969 C 12.183594 -21.574219 13.472656 -23.859375 14.664062 -26.125 C 15.460938 -27.601562 16.175781 -28.964844 16.804688 -30.207031 C 17.433594 -31.449219 17.808594 -32.339844 18.117188 -33.011719 C 18.253906 -33.449219 18.273438 -33.96875 18.191406 -34.476562 C 18.109375 -34.980469 17.824219 -35.453125 17.324219 -35.996094 C 16.367188 -36.773438 15.410156 -36.929688 14.34375 -36.449219 C 14.160156 -36.316406 13.734375 -35.726562 13.089844 -34.585938 C 12.34375 -33.425781 11.628906 -32.066406 10.828125 -30.589844 C 10.269531 -29.566406 9.625 -28.421875 8.976562 -27.28125 C 8.230469 -26.125 7.5 -24.863281 6.769531 -23.605469 C 5.277344 -21.289062 3.953125 -19.207031 2.597656 -17.328125 C 1.238281 -15.449219 0.460938 -14.496094 0.0390625 -14.53125 C -0.261719 -14.480469 -0.5 -14.652344 -0.5625 -15.054688 C -0.714844 -15.34375 -0.828125 -16.050781 -0.921875 -17.28125 C -1.117188 -19.117188 -1.039062 -21.203125 -0.722656 -23.746094 C -0.507812 -26.269531 -0.0546875 -29.246094 0.707031 -32.898438 C 0.949219 -34.597656 1.140625 -35.976562 1.351562 -37.253906 C 1.472656 -38.417969 1.460938 -39.140625 1.394531 -39.542969 C 1.078125 -40.21875 0.578125 -40.761719 -0.09375 -41.066406 L -0.734375 -41.171875 C -1.355469 -41.175781 -1.863281 -41.09375 -2.335938 -40.808594 C -2.707031 -40.542969 -3.0625 -40.171875 -3.371094 -39.5 C -3.675781 -38.828125 -3.984375 -37.535156 -4.332031 -35.820312 C -6.023438 -27.660156 -6.675781 -21.433594 -6.394531 -17.121094 C -6.367188 -16.296875 -6.269531 -15.691406 -6.1875 -15.183594 C -5.648438 -11.847656 -4.378906 -9.769531 -2.378906 -8.953125 Z M -0.863281 -45.820312 C -0.394531 -45.480469 0.0625 -45.242188 0.582031 -45.222656 C 1.003906 -45.1875 1.492188 -45.371094 2.066406 -45.671875 C 3.113281 -46.253906 3.605469 -47.058594 3.441406 -48.070312 C 3.28125 -49.082031 2.761719 -49.726562 1.855469 -50.199219 C 0.964844 -50.574219 0.15625 -50.445312 -0.589844 -49.910156 C -1.417969 -49.257812 -1.824219 -48.570312 -1.914062 -47.828125 C -1.984375 -46.988281 -1.566406 -46.328125 -0.863281 -45.820312 Z M -0.863281 -45.820312 "/></g></g></g><g fill="#5ce1e6" fill-opacity="1"><g transform="translate(105.000423, 103.528943)"><g><path d="M -2.835938 -15 C -2.28125 -14.777344 -1.660156 -14.773438 -1.054688 -14.871094 C -0.0429688 -15.035156 1.089844 -15.738281 2.242188 -16.960938 C 4.003906 -18.90625 6.378906 -22.816406 9.574219 -28.726562 C 11.480469 -32.355469 13.007812 -35.089844 14.332031 -37.171875 C 15.585938 -39.035156 16.367188 -39.992188 16.601562 -39.820312 C 16.734375 -39.636719 16.816406 -39.128906 16.863281 -38.203125 C 16.824219 -37.160156 16.816406 -35.914062 16.828125 -34.566406 C 16.671875 -30.390625 16.859375 -27.308594 17.589844 -25.351562 C 18.117188 -23.363281 19.375 -22.011719 21.121094 -21.460938 C 21.792969 -21.15625 22.332031 -21.035156 22.738281 -21.101562 C 23.15625 -21.066406 23.949219 -21.296875 24.929688 -21.660156 C 25.703125 -21.996094 27.191406 -23.066406 29.171875 -24.941406 C 31.167969 -26.714844 33.726562 -30.136719 36.867188 -35.105469 C 37.105469 -35.558594 37.226562 -36.097656 37.128906 -36.703125 C 37.03125 -37.308594 36.730469 -37.882812 36.226562 -38.425781 C 35.222656 -39.507812 34.179688 -39.546875 33.113281 -38.441406 L 32.347656 -37.382812 C 31.992188 -37.015625 31.757812 -36.5625 31.417969 -36.09375 C 29.976562 -34.097656 28.433594 -32.082031 26.6875 -30.039062 C 24.945312 -27.992188 23.761719 -26.972656 23.152344 -26.875 C 22.75 -26.808594 22.449219 -27.382812 22.355469 -28.613281 C 22.15625 -29.824219 22.203125 -32.113281 22.304688 -35.347656 C 22.363281 -36.914062 22.421875 -38.476562 22.394531 -39.925781 C 22.367188 -41.375 22.320312 -42.300781 22.257812 -42.707031 C 21.964844 -44.527344 21.246094 -45.757812 20.085938 -46.503906 C 18.84375 -47.132812 17.480469 -47.226562 16.03125 -46.574219 C 14.390625 -45.792969 12.597656 -44.050781 10.75 -41.367188 C 8.714844 -38.546875 6.03125 -33.964844 2.683594 -27.71875 C 1.882812 -26.242188 1.238281 -25.097656 0.660156 -24.175781 C 0.0859375 -23.253906 -0.253906 -22.78125 -0.289062 -22.984375 C -0.554688 -23.355469 -0.410156 -25.039062 0.0234375 -28.117188 C 0.359375 -31.179688 0.78125 -34.363281 1.402344 -37.574219 C 1.609375 -38.851562 1.820312 -40.132812 2.027344 -41.410156 C 2.152344 -42.570312 2.238281 -43.3125 2.207031 -43.515625 C 2.027344 -44.625 1.289062 -45.335938 0.214844 -45.578125 C -0.207031 -45.613281 -0.527344 -45.667969 -0.828125 -45.617188 C -1.539062 -45.503906 -2.09375 -45.101562 -2.519531 -44.515625 C -2.773438 -44.164062 -3.082031 -42.867188 -3.464844 -40.730469 C -3.914062 -38.375 -4.363281 -36.019531 -4.78125 -33.464844 C -5.109375 -31.648438 -5.355469 -29.949219 -5.53125 -28.46875 C -5.671875 -26.785156 -5.78125 -25.523438 -5.820312 -24.476562 C -5.914062 -22.492188 -5.855469 -20.839844 -5.644531 -19.527344 C -5.542969 -18.921875 -5.464844 -18.414062 -5.296875 -18.027344 C -4.832031 -16.441406 -4.046875 -15.425781 -2.835938 -15 Z M -2.835938 -15 "/></g></g></g><g fill="#5ce1e6" fill-opacity="1"><g transform="translate(142.409737, 97.48866)"><g><path d="M -5.503906 -10.316406 C -5.253906 -10.046875 -4.917969 -9.890625 -4.582031 -9.738281 C -4.246094 -9.585938 -4.042969 -9.617188 -3.839844 -9.652344 C -3.417969 -9.613281 -2.746094 -9.929688 -2.015625 -10.566406 C -1.375 -11.085938 -1.015625 -12.078125 -0.925781 -13.441406 C -0.953125 -14.265625 -0.339844 -16.234375 0.820312 -19.324219 C 2 -22.316406 3.261719 -25.425781 4.707031 -28.667969 C 5.613281 -30.785156 6.632812 -32.816406 7.566406 -34.730469 C 8.519531 -36.546875 9.320312 -38.023438 9.980469 -39.0625 C 10.898438 -40.457031 11.453125 -40.859375 11.535156 -40.351562 C 11.632812 -39.746094 11.355469 -37.625 10.914062 -33.921875 C 10.457031 -30.320312 10.207031 -27.375 10.195312 -24.886719 C 10.082031 -22.375 10.273438 -20.539062 10.65625 -19.460938 C 10.921875 -18.464844 11.605469 -17.4375 12.78125 -16.585938 C 13.851562 -15.722656 14.757812 -15.246094 15.570312 -15.378906 C 17.1875 -15.640625 19.0625 -16.875 21.378906 -19.222656 C 23.511719 -21.433594 26.074219 -24.855469 28.957031 -29.472656 C 29.925781 -31.183594 30.742188 -32.558594 31.1875 -33.667969 C 31.644531 -34.675781 31.835938 -35.433594 31.769531 -35.839844 L 31.738281 -36.039062 C 31.574219 -37.050781 30.9375 -37.777344 29.960938 -38.035156 C 28.886719 -38.277344 27.992188 -38.027344 27.210938 -37.074219 C 26.941406 -36.824219 26.535156 -36.132812 25.957031 -35.210938 C 25.296875 -34.171875 24.734375 -33.144531 24.070312 -32.105469 C 22.59375 -29.6875 21.101562 -27.371094 19.375 -25.226562 C 17.660156 -22.976562 16.59375 -21.871094 16.191406 -21.808594 C 15.683594 -21.726562 15.46875 -22.417969 15.527344 -23.984375 C 15.5 -25.429688 15.820312 -28.59375 16.46875 -33.574219 C 16.929688 -38.421875 17.132812 -41.671875 17.042969 -43.523438 C 16.847656 -45.359375 16.230469 -46.609375 15.160156 -47.472656 C 14.6875 -47.8125 14.234375 -48.050781 13.78125 -48.289062 C 13.242188 -48.410156 12.824219 -48.445312 12.417969 -48.378906 C 11.003906 -48.152344 9.332031 -46.945312 7.414062 -44.667969 C 5.519531 -42.285156 3.71875 -39.296875 1.8125 -35.667969 C 1.269531 -34.542969 0.792969 -33.636719 0.386719 -32.949219 C -0.105469 -32.144531 -0.359375 -31.792969 -0.359375 -31.792969 C -0.5625 -31.757812 -0.558594 -33.003906 -0.34375 -35.53125 C -0.226562 -38.039062 0.0234375 -40.984375 0.410156 -44.367188 C 0.535156 -46.148438 0.75 -48.050781 0.960938 -49.953125 C 1.1875 -51.753906 1.417969 -53.554688 1.660156 -55.253906 C 1.835938 -56.734375 2.203125 -58.972656 2.671875 -61.847656 C 3.039062 -64.707031 3.539062 -67.382812 3.972656 -69.839844 C 4.390625 -72.398438 4.773438 -74.535156 4.984375 -76.433594 C 5.195312 -78.335938 5.234375 -79.378906 5.1875 -79.683594 C 4.902344 -80.15625 4.414062 -80.597656 3.625 -80.988281 C 2.988281 -81.09375 2.449219 -81.210938 2.042969 -81.148438 C 1.84375 -81.113281 1.65625 -80.980469 1.554688 -80.964844 C 0.980469 -80.664062 0.558594 -80.078125 0.285156 -79.203125 C 0.0078125 -78.328125 -0.523438 -75.855469 -1.21875 -71.800781 C -1.742188 -68.605469 -2.277344 -65.511719 -2.746094 -62.632812 C -3.199219 -59.65625 -3.585938 -56.894531 -3.96875 -54.136719 C -4.6875 -48.9375 -5.199219 -43.769531 -5.628906 -38.722656 C -6.027344 -33.46875 -6.359375 -27.8125 -6.59375 -21.550781 C -6.785156 -16.957031 -6.832031 -14.042969 -6.636719 -12.832031 L -6.570312 -12.425781 C -6.40625 -11.414062 -6.089844 -10.738281 -5.503906 -10.316406 Z M -5.503906 -10.316406 "/></g></g></g><g fill="#5ce1e6" fill-opacity="1"><g transform="translate(54.565286, 210.38253)"><g><path d="M 6.203125 -1.417969 C 6.84375 -1.3125 7.566406 -1.324219 8.375 -1.457031 C 8.78125 -1.519531 9.285156 -1.601562 9.773438 -1.785156 C 11.175781 -2.117188 12.441406 -2.632812 13.46875 -3.316406 C 16.476562 -5.253906 19.457031 -8.640625 22.242188 -13.238281 C 25.027344 -17.839844 27.9375 -24.222656 31.179688 -32.421875 C 32.203125 -35.078125 32.921875 -37.0625 33.433594 -38.390625 C 33.972656 -35.675781 34.402344 -33.667969 34.613281 -32.355469 C 35.300781 -28.730469 36.03125 -26.152344 36.914062 -24.53125 C 37.714844 -22.792969 38.867188 -21.421875 40.378906 -20.421875 C 41.554688 -19.574219 42.679688 -19.03125 43.636719 -18.871094 C 44.511719 -18.597656 45.757812 -18.59375 47.273438 -18.835938 C 51.824219 -19.574219 56.203125 -23.289062 60.34375 -29.765625 C 64.488281 -36.246094 67.574219 -44.109375 69.574219 -53.5625 C 70.351562 -57.109375 70.804688 -60.089844 70.816406 -62.582031 C 70.84375 -64.972656 70.691406 -67.851562 70.136719 -71.289062 C 69.449219 -74.914062 68.65625 -77.898438 67.757812 -80.242188 C 66.773438 -82.46875 65.324219 -85.035156 63.402344 -87.941406 C 61.261719 -90.917969 59.503906 -92.8125 58.125 -93.625 C 57.453125 -93.933594 56.800781 -94.136719 56.191406 -94.039062 C 55.585938 -93.941406 55.011719 -93.640625 54.585938 -93.054688 C 54.078125 -92.351562 53.976562 -91.710938 54.074219 -91.105469 C 54.171875 -90.496094 54.824219 -89.667969 55.796875 -88.789062 C 58.777344 -85.742188 61.117188 -82.179688 62.8125 -78.09375 C 64.425781 -73.894531 65.226562 -69.5625 65.339844 -65.015625 C 65.355469 -61.699219 64.984375 -58.214844 64.328125 -54.582031 C 63.566406 -50.933594 62.558594 -47.550781 61.328125 -44.242188 C 59.023438 -37.957031 56.21875 -32.835938 52.933594 -28.777344 C 49.660156 -24.617188 46.671875 -23.203125 43.96875 -24.527344 C 42.390625 -25.3125 41.121094 -27.390625 40.347656 -30.894531 C 39.488281 -34.285156 39.140625 -38.375 39.300781 -43.175781 C 39.296875 -45.769531 39.476562 -48.496094 39.84375 -51.355469 C 40.128906 -54.097656 40.597656 -56.976562 41.167969 -59.867188 C 41.394531 -61.046875 41.617188 -62.222656 41.757812 -63.285156 C 41.8125 -64.226562 41.917969 -64.867188 41.867188 -65.167969 C 41.734375 -65.355469 41.484375 -65.625 41.214844 -65.996094 C 40.847656 -66.351562 40.496094 -66.605469 40.160156 -66.761719 C 39.019531 -67.40625 38.125 -67.15625 37.445312 -66.21875 C 36.785156 -65.175781 35.605469 -62.1875 34.015625 -57.261719 C 29.398438 -42.820312 25.28125 -31.679688 21.589844 -23.714844 C 17.808594 -15.636719 14.367188 -10.621094 11.289062 -8.460938 C 9.429688 -7.125 7.949219 -6.679688 6.855469 -7.019531 C 5.777344 -7.261719 4.757812 -8.445312 4.027344 -10.402344 C 3.359375 -11.953125 3.066406 -13.773438 3.011719 -16.046875 C 2.855469 -18.304688 2.933594 -21.015625 3.238281 -24.28125 C 3.558594 -27.445312 3.976562 -30.625 4.699219 -33.855469 C 5.339844 -36.964844 6.558594 -41.625 8.273438 -47.710938 C 10.125 -54.234375 11.175781 -58.65625 11.320312 -60.960938 C 11.5 -63.066406 10.953125 -64.535156 9.609375 -65.148438 C 8.265625 -65.761719 6.832031 -65.632812 5.546875 -64.59375 C 4.160156 -63.542969 2.332031 -61.378906 -0.0429688 -58.089844 C -2.722656 -54.128906 -4.285156 -51.59375 -4.710938 -50.386719 C -5.121094 -49.074219 -4.859375 -48.078125 -3.785156 -47.214844 C -3.046875 -46.503906 -2.207031 -46.433594 -1.460938 -46.96875 C -0.820312 -47.488281 0.214844 -48.792969 1.636719 -50.890625 C 2.285156 -52.035156 2.960938 -52.972656 3.554688 -53.796875 C 4.066406 -54.5 4.421875 -54.867188 4.421875 -54.867188 C 4.4375 -54.765625 4.261719 -53.910156 3.886719 -52.394531 C 3.523438 -50.78125 3.007812 -48.832031 2.324219 -46.644531 C 0.851562 -41.636719 -0.128906 -37.429688 -0.738281 -34.117188 C -1.425781 -30.683594 -1.933594 -27.386719 -2.21875 -24.023438 C -2.679688 -19.796875 -2.578125 -15.976562 -2.039062 -12.636719 C -1.5 -9.300781 -0.671875 -6.738281 0.648438 -4.980469 C 1.199219 -4.136719 2.15625 -3.355469 3.296875 -2.710938 C 4.472656 -1.863281 5.363281 -1.488281 6.203125 -1.417969 Z M 6.203125 -1.417969 "/></g></g></g><g fill="#5ce1e6" fill-opacity="1"><g transform="translate(135.349185, 197.338784)"><g><path d="M 7.101562 -42.75 L 6.261719 -42.820312 L 5.453125 -42.691406 L 5.351562 -42.671875 C 2.535156 -42.113281 -0.203125 -39.804688 -2.648438 -35.675781 C -5.195312 -31.53125 -6.5625 -27.160156 -6.738281 -22.460938 C -6.746094 -21.214844 -6.652344 -19.988281 -6.488281 -18.976562 C -6.175781 -17.054688 -5.597656 -15.382812 -4.558594 -14.097656 C -3.070312 -11.953125 -1.007812 -10.730469 1.71875 -10.546875 C 2.460938 -10.460938 3.183594 -10.472656 3.992188 -10.605469 C 6.621094 -11.027344 9.695312 -12.5625 13.210938 -15.203125 C 17.65625 -18.515625 22.074219 -23.277344 26.484375 -29.382812 C 28.109375 -31.511719 29.109375 -33.023438 29.605469 -33.828125 C 30.011719 -34.515625 30.199219 -35.273438 30.101562 -35.878906 C 29.972656 -36.6875 29.554688 -37.347656 28.847656 -37.855469 C 28.058594 -38.246094 27.320312 -38.335938 26.746094 -38.035156 C 26.558594 -37.902344 26.035156 -37.296875 25.15625 -36.328125 C 24.289062 -35.253906 23.339844 -34.0625 22.324219 -32.652344 C 18.730469 -27.921875 15.394531 -24.167969 12.300781 -21.488281 C 9.222656 -18.710938 6.46875 -17.125 4.074219 -16.53125 C 3.078125 -16.265625 2.269531 -16.136719 1.734375 -16.257812 C 1.125 -16.160156 0.570312 -16.378906 0.304688 -16.753906 C -0.164062 -17.089844 -0.566406 -17.648438 -0.898438 -18.425781 C -1.199219 -19 -1.332031 -19.808594 -1.175781 -20.765625 C 0.515625 -21.871094 1.714844 -22.789062 2.542969 -23.441406 C 5.71875 -25.613281 8.023438 -28.0625 9.464844 -30.679688 C 10.925781 -33.199219 11.5625 -35.6875 11.15625 -38.214844 C 10.941406 -39.53125 10.460938 -40.59375 9.824219 -41.320312 C 9.085938 -42.03125 8.179688 -42.507812 7.101562 -42.75 Z M 0.746094 -30.726562 C 1.222656 -31.632812 1.953125 -32.890625 3.136719 -34.535156 C 4.339844 -36.078125 5.035156 -36.917969 5.441406 -36.980469 C 6.351562 -37.128906 6.210938 -36.070312 5.105469 -33.917969 C 4.015625 -31.667969 2.710938 -30.109375 1.410156 -29.171875 C 0.582031 -28.519531 0.09375 -28.335938 0.0585938 -28.539062 C 0.0273438 -28.742188 0.234375 -29.398438 0.746094 -30.726562 Z M 0.746094 -30.726562 "/></g></g></g><g fill="#5ce1e6" fill-opacity="1"><g transform="translate(166.388806, 192.326981)"><g><path d="M -4.609375 -0.914062 C -4.375 -0.746094 -4.039062 -0.59375 -3.617188 -0.558594 C -3.398438 -0.488281 -3.09375 -0.539062 -2.691406 -0.601562 L -2.488281 -0.636719 C -1.78125 -0.75 -1.238281 -1.253906 -0.949219 -2.023438 C -0.644531 -2.699219 -0.503906 -3.757812 -0.5625 -5.40625 C -0.589844 -6.855469 -0.171875 -9.414062 0.722656 -12.878906 C 1.515625 -16.324219 2.457031 -19.484375 3.515625 -22.5625 C 4.933594 -26.628906 6.820312 -30.359375 8.976562 -33.714844 C 11.148438 -36.96875 12.824219 -38.796875 14.207031 -39.226562 C 15.421875 -39.421875 16.160156 -38.710938 16.636719 -37.027344 C 17.03125 -35.222656 16.972656 -33.035156 16.382812 -30.242188 C 15.660156 -27.011719 14.519531 -24.441406 12.992188 -22.328125 C 11.484375 -20.113281 9.65625 -18.574219 7.5 -17.808594 C 6.046875 -17.160156 5.101562 -16.59375 4.660156 -16.105469 C 4.121094 -15.605469 4.03125 -14.863281 4.265625 -14.070312 C 4.425781 -13.058594 4.945312 -12.417969 5.601562 -12.210938 C 6.273438 -11.90625 7.402344 -11.984375 8.886719 -12.433594 C 11.179688 -13.007812 13.425781 -14.511719 15.542969 -16.828125 C 17.660156 -19.140625 19.273438 -21.992188 20.585938 -25.421875 C 22.191406 -29.621094 22.816406 -33.457031 22.261719 -36.898438 C 22.097656 -37.90625 21.832031 -38.902344 21.46875 -39.878906 C 19.789062 -43.863281 17.050781 -45.390625 13.257812 -44.46875 C 12.652344 -44.371094 11.976562 -44.054688 11.300781 -43.738281 C 10.523438 -43.40625 9.867188 -42.988281 9.492188 -42.71875 C 8.394531 -41.816406 7.160156 -40.476562 5.769531 -38.796875 C 4.3125 -36.902344 3.3125 -35.394531 2.699219 -34.050781 C 2.375 -33.476562 2.136719 -33.023438 1.984375 -32.6875 C 1.644531 -32.21875 1.460938 -32.085938 1.441406 -32.1875 C 1.242188 -32.152344 1.46875 -33.953125 2.160156 -37.386719 C 2.648438 -40.785156 3.460938 -44.753906 4.375 -49.363281 C 4.824219 -51.71875 5.34375 -54.292969 5.960938 -56.882812 C 6.480469 -59.453125 7.03125 -61.824219 7.582031 -64.199219 C 8.273438 -67.628906 8.929688 -70.640625 9.429688 -73.3125 C 9.847656 -75.871094 10.125 -77.367188 10.089844 -77.570312 C 9.910156 -78.058594 9.507812 -78.617188 8.804688 -79.125 C 8.113281 -79.535156 7.660156 -79.773438 7.257812 -79.707031 L 7.15625 -79.691406 C 6.363281 -79.457031 5.582031 -78.503906 5.035156 -76.753906 C 4.386719 -74.988281 3.457031 -71.105469 2.132812 -65.183594 C 0.390625 -57.332031 -1.007812 -50.570312 -2.078125 -45 C -3.21875 -39.214844 -3.953125 -34.117188 -4.480469 -29.675781 C -4.917969 -25.972656 -5.359375 -22.269531 -5.597656 -18.601562 C -5.816406 -14.828125 -6.019531 -11.582031 -6.101562 -8.871094 C -6.074219 -7.421875 -6.066406 -6.074219 -6.003906 -5.046875 C -6.074219 -4.207031 -5.976562 -3.601562 -5.910156 -3.195312 L -5.84375 -2.789062 C -5.78125 -2.386719 -5.613281 -2 -5.347656 -1.625 C -5.078125 -1.253906 -4.828125 -0.984375 -4.609375 -0.914062 Z M -4.609375 -0.914062 "/></g></g></g><g clip-path="url(#7e09ed5fa4)"><path stroke-linecap="butt" transform="matrix(0.7496, 0.000000000000000008, -0.000000000000000008, 0.7496, -0.00000000000004261, 0.060015)" fill="none" stroke-linejoin="miter" d="M 0.000000000000056866 1.999171 L 299.998567 1.999171 " stroke="#5ce1e6" stroke-width="4" stroke-opacity="1" stroke-miterlimit="4"/></g><g clip-path="url(#49dd8e5f8d)"><path stroke-linecap="butt" transform="matrix(0, -0.7496, 0.7496, 0, 0, 224.939996)" fill="none" stroke-linejoin="miter" d="M -0.00188184 2.001067 L 300.001896 2.001067 " stroke="#5ce1e6" stroke-width="4" stroke-opacity="1" stroke-miterlimit="4"/></g><g clip-path="url(#7d270bb467)"><path stroke-linecap="butt" transform="matrix(0.7496, 0, 0, 0.7496, -0.000000000000063915, 221.941596)" fill="none" stroke-linejoin="miter" d="M 0.000000000000085265 2.000814 L 299.998567 2.000814 " stroke="#5ce1e6" stroke-width="4" stroke-opacity="1" stroke-miterlimit="4"/></g><g clip-path="url(#47a8040443)"><path stroke-linecap="butt" transform="matrix(0, -0.7496, 0.7496, 0, 221.877071, 28.549307)" fill="none" stroke-linejoin="miter" d="M -0.00196637 1.998304 L 38.013103 1.998304 " stroke="#5ce1e6" stroke-width="4" stroke-opacity="1" stroke-miterlimit="4"/></g><g clip-path="url(#39a2a17245)"><path stroke-linecap="butt" transform="matrix(0, -0.7496, 0.7496, 0, 221.877071, 224.935486)" fill="none" stroke-linejoin="miter" d="M 0.00252439 1.998304 L 38.012383 1.998304 " stroke="#5ce1e6" stroke-width="4" stroke-opacity="1" stroke-miterlimit="4"/></g></svg>